<svg xmlns="http://www.w3.org/2000/svg" viewBox="0 0 512 512" role="img" aria-label="The Lagniappe Arcana">
  <defs>
    <linearGradient id="bg" x1="0" y1="0" x2="0" y2="1">
      <stop offset="0" stop-color="#241a3d"/>
      <stop offset="0.6" stop-color="#140f24"/>
      <stop offset="1" stop-color="#0b0816"/>
    </linearGradient>
    <linearGradient id="gold" x1="0" y1="0" x2="0" y2="1">
      <stop offset="0" stop-color="#e0c06a"/>
      <stop offset="1" stop-color="#b8893b"/>
    </linearGradient>
  </defs>
  <rect width="512" height="512" rx="96" fill="url(#bg)"/>
  <rect x="38" y="38" width="436" height="436" rx="60" fill="none" stroke="#d9b25a" stroke-opacity="0.55" stroke-width="9"/>
  <g transform="translate(256 256) scale(3.05) translate(-32 -50)" fill="url(#gold)">
    <path d="M32 2c-3.2 6.8-2.6 12.7.8 18.6 2 3.5 2.6 6.8 1.8 10.2-1.4-2-3.2-3.4-5.6-3.9 1.1-5.2-.6-9.9-4.6-13.9 1.1 4.6.2 8-2.4 11.2-2.9 3.6-4.2 7.4-3.3 12.1.6 3.2 2.5 5.7 5.6 7.4-3.3.4-6 1.9-7.9 4.9-2.9-4.2-7-6.4-12.4-6.2 3.4 2.9 5 6.2 4.9 10.2 4.6-1.3 8.4-.2 11.6 2.9-2.3 1.1-3.9 2.9-4.7 5.4-1 3.2-.3 6.1 1.7 8.7-2.3-.6-4.5-.3-6.6 1 2.4 1.2 3.8 3.1 4.3 5.7.9-1.3 2.1-2.1 3.7-2.4-1.3 4.6-.7 8.9 2 12.9 1.2-2.6 2.9-4.3 5.3-5.2-1.6 5 .2 11.6 4.5 16.4 4.3-4.8 6.1-11.4 4.5-16.4 2.4.9 4.1 2.6 5.3 5.2 2.7-4 3.3-8.3 2-12.9 1.6.3 2.8 1.1 3.7 2.4.5-2.6 1.9-4.5 4.3-5.7-2.1-1.3-4.3-1.6-6.6-1 2-2.6 2.7-5.5 1.7-8.7-.8-2.5-2.4-4.3-4.7-5.4 3.2-3.1 7-4.2 11.6-2.9-.1-4 1.5-7.3 4.9-10.2-5.4-.2-9.5 2-12.4 6.2-1.9-3-4.6-4.5-7.9-4.9 3.1-1.7 5-4.2 5.6-7.4.9-4.7-.4-8.5-3.3-12.1-2.6-3.2-3.5-6.6-2.4-11.2-4 4-5.7 8.7-4.6 13.9-2.4.5-4.2 1.9-5.6 3.9-.8-3.4-.2-6.7 1.8-10.2C34.6 14.7 35.2 8.8 32 2z"/>
    <rect x="14" y="64" width="36" height="4" rx="2"/>
  </g>
</svg>
